<?xml version="1.0" encoding="UTF-8"?>
<!-- Generator: Adobe Illustrator 15.0.0, SVG Export Plug-In . SVG Version: 6.00 Build 0)  -->
<!DOCTYPE svg PUBLIC "-//W3C//DTD SVG 1.1//EN" "http://www.w3.org/Graphics/SVG/1.1/DTD/svg11.dtd">
<svg version="1.1" id="Capa_1" xmlns="http://www.w3.org/2000/svg" xmlns:xlink="http://www.w3.org/1999/xlink" x="0px" y="0px" width="300px" height="150px" viewBox="0 0 300 150" enable-background="new 0 0 300 150" xml:space="preserve">
<path fill="#FFFFFF" d="M220.207,136.627l-35.699-37.131c9.179-10.912,14.208-24.641,14.208-38.934  C198.716,27.169,171.547,0,138.153,0S77.591,27.169,77.591,60.563s27.169,60.563,60.563,60.563c12.536,0,24.483-3.781,34.697-10.959  l35.972,37.412c1.504,1.561,3.525,2.422,5.692,2.422c2.052,0,3.997-0.782,5.475-2.204  C223.128,144.775,223.229,139.768,220.207,136.627z M138.153,15.799c24.683,0,44.764,20.081,44.764,44.764  c0,24.684-20.081,44.764-44.764,44.764c-24.683,0-44.763-20.08-44.763-44.764C93.39,35.879,113.47,15.799,138.153,15.799z"/>
</svg>